<svg xmlns="http://www.w3.org/2000/svg" viewBox="0 0 176.6 181.1"><defs><style>.cls-1{fill:#fff;}.cls-2{fill:none;stroke:#fff;stroke-miterlimit:10;stroke-width:2px;}</style></defs><title>holiday_card_Asset 3</title><g id="Layer_2" data-name="Layer 2"><g id="Layer_2-2" data-name="Layer 2"><path class="cls-1" d="M78.68,8.28a8.37,8.37,0,0,1,16.73,0,8.37,8.37,0,0,1-16.73,0Zm13.22,0c0-3-1.9-5.26-4.85-5.26s-4.87,2.26-4.87,5.26,1.9,5.26,4.87,5.26S91.91,11.26,91.91,8.28Z"/><path class="cls-1" d="M100.79,14.79v5.9h-3v-16h3V6.14a4.48,4.48,0,0,1,3.58-1.75c3,0,5.14,2.21,5.14,6.07s-2.16,6.1-5.14,6.1A4.46,4.46,0,0,1,100.79,14.79Zm5.57-4.32c0-2-1.2-3.36-3-3.36a3.38,3.38,0,0,0-2.62,1.32V12.5a3.44,3.44,0,0,0,2.62,1.34C105.16,13.85,106.36,12.48,106.36,10.46Z"/><path class="cls-1" d="M111,10.46a5.91,5.91,0,0,1,6-6.07c3.48,0,5.81,2.59,5.81,6.36v.72h-8.62a3.11,3.11,0,0,0,3.34,2.59,4.85,4.85,0,0,0,3.07-1.13L122,15a7.23,7.23,0,0,1-4.78,1.61A5.87,5.87,0,0,1,111,10.46Zm6-3.58a2.67,2.67,0,0,0-2.83,2.47h5.71A2.66,2.66,0,0,0,117,6.89Z"/><path class="cls-1" d="M132.83,16.27v-7a1.88,1.88,0,0,0-2.14-2.16,3.39,3.39,0,0,0-2.64,1.34v7.82h-3V4.68h3V6.17a5.42,5.42,0,0,1,4.06-1.78c2.57,0,3.79,1.44,3.79,3.7v8.18Z"/><path class="cls-1" d="M159.45,16.27V9c0-1.08-.48-1.85-1.73-1.85a3.08,3.08,0,0,0-2.4,1.34v7.82h-3.07V9c0-1.08-.48-1.85-1.73-1.85a3.16,3.16,0,0,0-2.4,1.34v7.82h-3V4.68h3V6.17a5.19,5.19,0,0,1,3.79-1.78,3.06,3.06,0,0,1,3.22,2.09,5,5,0,0,1,4-2.09c2.14,0,3.41,1.13,3.41,3.5v8.38Z"/><path class="cls-1" d="M164.8,10.46a5.91,5.91,0,0,1,6-6.07c3.48,0,5.81,2.59,5.81,6.36v.72H168a3.11,3.11,0,0,0,3.34,2.59,4.85,4.85,0,0,0,3.07-1.13l1.37,2A7.23,7.23,0,0,1,171,16.56,5.87,5.87,0,0,1,164.8,10.46Zm6-3.58A2.67,2.67,0,0,0,168,9.36h5.71A2.66,2.66,0,0,0,170.8,6.89Z"/><path class="cls-2" d="M127.36,35.67a125.93,125.93,0,0,1-126,126"/><polyline class="cls-2" points="17.01 180.47 1.41 161.27 20.61 145.67"/></g></g></svg>