<svg xmlns="http://www.w3.org/2000/svg" viewBox="0 0 295.02 83.87"><defs><style>.cls-1{fill:#ec6629;}.cls-2{fill:#2966af;}.cls-3{fill:#e2178c;}.cls-4{fill:#fff;}</style></defs><title>holiday_card_Asset 1</title><g id="Layer_2" data-name="Layer 2"><g id="Layer_2-2" data-name="Layer 2"><path class="cls-1" d="M20.85,62.57A2.15,2.15,0,1,0,23.4,60.9a2.15,2.15,0,0,0-2.55,1.67"/><path class="cls-1" d="M27.29,54.58A2.89,2.89,0,1,0,29.53,58a2.89,2.89,0,0,0-2.24-3.42"/><path class="cls-1" d="M17.94,66.1a1.22,1.22,0,1,0,1.44-.94,1.22,1.22,0,0,0-1.44.94"/><path class="cls-1" d="M15,68.3a.72.72,0,1,0,.85-.55.72.72,0,0,0-.85.55"/><path class="cls-2" d="M3.48,55.94a4.23,4.23,0,1,1,4.48,4,4.23,4.23,0,0,1-4.48-4"/><path class="cls-2" d="M13.48,54.35a2.89,2.89,0,1,1,3.06,2.71,2.89,2.89,0,0,1-3.06-2.71"/><path class="cls-2" d="M22.4,48.92a2.15,2.15,0,1,1-2,2.28,2.15,2.15,0,0,1,2-2.28"/><path class="cls-2" d="M26.41,46.49a1.14,1.14,0,1,1-1.07,1.21,1.14,1.14,0,0,1,1.07-1.21"/><path class="cls-1" d="M8.38,42.85a2.15,2.15,0,1,0,2.72,1.37,2.15,2.15,0,0,0-2.72-1.37"/><path class="cls-1" d="M18.52,44.42a2.89,2.89,0,1,0-1.85,3.65,2.89,2.89,0,0,0,1.85-3.65"/><path class="cls-1" d="M3.87,42.09a1.22,1.22,0,1,0,1.54.78,1.22,1.22,0,0,0-1.54-.78"/><path class="cls-1" d="M.49,40.65a.72.72,0,1,0,.9.46.72.72,0,0,0-.9-.46"/><path class="cls-2" d="M5.43,24.49a4.23,4.23,0,1,1-1.2,5.87,4.23,4.23,0,0,1,1.2-5.87"/><path class="cls-2" d="M11.81,32.35a2.89,2.89,0,1,1-.82,4,2.89,2.89,0,0,1,.82-4"/><path class="cls-2" d="M21,37.36a2.15,2.15,0,1,1-3-.61,2.15,2.15,0,0,1,3,.61"/><path class="cls-2" d="M25.09,39.62a1.14,1.14,0,1,1-1.58-.32,1.14,1.14,0,0,1,1.58.32"/><path class="cls-1" d="M19.22,22.24a2.15,2.15,0,1,0,.17,3,2.15,2.15,0,0,0-.17-3"/><path class="cls-1" d="M22.92,31.81a2.89,2.89,0,1,0-4.08.23,2.89,2.89,0,0,0,4.08-.23"/><path class="cls-1" d="M17.62,18a1.22,1.22,0,1,0,.1,1.72,1.22,1.22,0,0,0-.1-1.72"/><path class="cls-1" d="M17.18,14.32a.72.72,0,1,0,.06,1,.72.72,0,0,0-.06-1"/><path class="cls-2" d="M33.64,10.51A4.23,4.23,0,1,1,28,12.41a4.23,4.23,0,0,1,5.68-1.9"/><path class="cls-2" d="M30,20a2.89,2.89,0,1,1-3.88,1.3A2.89,2.89,0,0,1,30,20"/><path class="cls-2" d="M30.26,30.41a2.15,2.15,0,1,1-1-2.89,2.15,2.15,0,0,1,1,2.89"/><path class="cls-2" d="M41.87.57A5.43,5.43,0,1,1,34.59,3,5.43,5.43,0,0,1,41.87.57"/><path class="cls-2" d="M30.37,35.1a1.14,1.14,0,1,1-.51-1.53,1.14,1.14,0,0,1,.51,1.53"/><path class="cls-1" d="M42.49,21.3A2.15,2.15,0,1,0,39.94,23a2.15,2.15,0,0,0,2.55-1.67"/><path class="cls-1" d="M36,29.29a2.89,2.89,0,1,0-2.24-3.42A2.89,2.89,0,0,0,36,29.29"/><path class="cls-1" d="M45.4,17.77a1.22,1.22,0,1,0-1.44.94,1.22,1.22,0,0,0,1.44-.94"/><path class="cls-1" d="M48.33,15.57a.72.72,0,1,0-.85.55.72.72,0,0,0,.85-.55"/><path class="cls-2" d="M59.85,27.93a4.23,4.23,0,1,1-4.48-4,4.23,4.23,0,0,1,4.48,4"/><path class="cls-2" d="M49.86,29.52a2.89,2.89,0,1,1-3.06-2.71,2.89,2.89,0,0,1,3.06,2.71"/><path class="cls-2" d="M40.94,34.95a2.15,2.15,0,1,1,2-2.28,2.15,2.15,0,0,1-2,2.28"/><path class="cls-2" d="M36.93,37.39A1.14,1.14,0,1,1,38,36.18a1.14,1.14,0,0,1-1.07,1.21"/><circle class="cls-3" cx="31.66" cy="41.93" r="4.23" transform="translate(-18.89 27.6) rotate(-37.11)"/><path class="cls-1" d="M44.12,61.62a2.15,2.15,0,1,0-.17-3,2.15,2.15,0,0,0,.17,3"/><path class="cls-1" d="M40.42,52.05a2.89,2.89,0,1,0,4.08-.23,2.89,2.89,0,0,0-4.08.23"/><path class="cls-1" d="M45.72,65.91a1.22,1.22,0,1,0-.1-1.72,1.22,1.22,0,0,0,.1,1.72"/><path class="cls-1" d="M46.16,69.55a.72.72,0,1,0-.06-1,.72.72,0,0,0,.06,1"/><path class="cls-2" d="M29.69,73.36a4.23,4.23,0,1,1,5.68-1.9,4.23,4.23,0,0,1-5.68,1.9"/><path class="cls-2" d="M33.3,63.9a2.89,2.89,0,1,1,3.88-1.3,2.89,2.89,0,0,1-3.88,1.3"/><path class="cls-2" d="M33.06,53.46a2.15,2.15,0,1,1,1,2.89,2.15,2.15,0,0,1-1-2.89"/><path class="cls-2" d="M21.45,83.3a5.43,5.43,0,1,1,7.29-2.43,5.43,5.43,0,0,1-7.29,2.43"/><path class="cls-1" d="M55,41a2.15,2.15,0,1,0-2.72-1.37A2.15,2.15,0,0,0,55,41"/><path class="cls-1" d="M44.81,39.42a2.89,2.89,0,1,0,1.85-3.65,2.89,2.89,0,0,0-1.85,3.65"/><path class="cls-1" d="M59.46,41.76A1.22,1.22,0,1,0,57.92,41a1.22,1.22,0,0,0,1.54.78"/><path class="cls-1" d="M62.84,43.2a.72.72,0,1,0-.9-.46.72.72,0,0,0,.9.46"/><path class="cls-2" d="M33,48.77a1.14,1.14,0,1,1,.51,1.53A1.14,1.14,0,0,1,33,48.77"/><path class="cls-2" d="M57.9,59.35a4.23,4.23,0,1,1,1.2-5.87,4.23,4.23,0,0,1-1.2,5.87"/><path class="cls-2" d="M51.52,51.49a2.89,2.89,0,1,1,.82-4,2.89,2.89,0,0,1-.82,4"/><path class="cls-2" d="M42.36,46.48a2.15,2.15,0,1,1,3,.61,2.15,2.15,0,0,1-3-.61"/><path class="cls-2" d="M38.24,44.23a1.14,1.14,0,1,1,1.58.32,1.14,1.14,0,0,1-1.58-.32"/><path class="cls-4" d="M90.64,23c-3.57-.43-6-1.12-6-3.12s2.09-3.32,5.45-3.32c3,0,5.51,1.52,6.37,3l.23.38,5.09-2.62-.2-.41C99.71,13,95.68,10.95,90,10.95s-11.53,2.78-11.53,8.8c0,6.82,5.88,8.44,11.64,9.12,4.22.45,6.19,1.64,6.19,3.74,0,3.54-4.67,3.81-6.1,3.81-3.69,0-6.54-1.58-7.6-4.23l-.19-.48L77,34.46l.16.4c2,4.92,6.21,7.31,12.88,7.31,9.19,0,12.47-4.94,12.47-9.57C102.56,25.48,96.83,23.8,90.64,23Z"/><rect class="cls-4" x="105.4" y="19.93" width="6" height="21"/><path class="cls-4" d="M108.71,11.8a3.29,3.29,0,0,0-3.41,3.38,3.26,3.26,0,0,0,1.08,2.53,3.51,3.51,0,0,0,2.33.84,3.29,3.29,0,0,0,3.41-3.38A3.29,3.29,0,0,0,108.71,11.8Z"/><path class="cls-4" d="M127.34,19.62a9.18,9.18,0,0,0-6.3,2.51l-.27-2.19H115.4v21h6V30.18c0-2.94,2-5.16,4.64-5.16,3.21,0,4.36,2.54,4.36,4.92v11h6v-11C136.4,23.76,132.76,19.62,127.34,19.62Z"/><path class="cls-4" d="M157,18l-2.07,2.56a9.2,9.2,0,0,0-4.59-1c-6.31,0-10.89,4.49-10.89,10.67,0,6.53,4.17,10.59,10.89,10.59,2.35,0,4.72,1.1,4.72,3.57s-1.85,3.85-4.72,3.85-4.89-1.66-4.89-3.85v-.47h-6v.47c0,5.56,4.48,9.45,10.89,9.45s10.77-3.8,10.77-9.45a7.1,7.1,0,0,0-3.72-6.64c3.51-2.1,3.8-6.23,3.8-7.52a9,9,0,0,0-2-6l2.35-2.93Zm-6.27,7.19a4.94,4.94,0,0,1,5,5.2,5,5,0,1,1-10.08,0A4.91,4.91,0,0,1,150.69,25.19Z"/><path class="cls-4" d="M179.4,30.69c0,2.94-2,5.16-4.64,5.16-3.21,0-4.36-2.54-4.36-4.92v-11h-6v11c0,6.26,3.48,10.31,8.86,10.31a9.2,9.2,0,0,0,6.5-2.51l.27,2.2h5.37v-21h-6Z"/><rect class="cls-4" x="190.4" y="11.93" width="6" height="30"/><path class="cls-4" d="M215.61,22.27c-1.4-1.5-6-1.34-6-1.34h-.72a9.93,9.93,0,0,0-7.1,2.67,9.94,9.94,0,0,0-2.71,7.26,10.23,10.23,0,0,0,2.73,7.47,9.61,9.61,0,0,0,7,2.6h.72s4.68.16,6.17-1.54l.17,2.54h5.58v-22h-5.68Zm-.26,8.63A6,6,0,0,1,214,34.79a5.14,5.14,0,0,1-4,1.74,5.27,5.27,0,0,1-5.49-5.65,5.25,5.25,0,0,1,5.49-5.61C213.66,25.28,215.35,28.19,215.35,30.91Z"/><path class="cls-4" d="M236.67,19.41a6.68,6.68,0,0,0-5.46,2.13l-.26-1.6H225.4v21h6v-11c0-4.17,3.22-4.62,4.61-4.62a4.61,4.61,0,0,1,3.33,1.19l.46.38,2.71-5.14-.25-.24A8.31,8.31,0,0,0,236.67,19.41Z"/><path class="cls-4" d="M247.76,11.8a3.29,3.29,0,0,0-3.41,3.38,3.26,3.26,0,0,0,1.08,2.53,3.51,3.51,0,0,0,2.33.84,3.29,3.29,0,0,0,3.41-3.38A3.29,3.29,0,0,0,247.76,11.8Z"/><rect class="cls-4" x="245.4" y="19.93" width="6" height="21"/><path class="cls-4" d="M268.42,35.66a5.22,5.22,0,0,1-2.2.56c-1.38,0-2.81-2.39-2.81-2.39V25.93h6v-5h-5V15.22l-6,.63v5.09h-4v5h4v7.91a7.18,7.18,0,0,0,1.93,6,7.25,7.25,0,0,0,5.16,1.84h.41a11.63,11.63,0,0,0,4.29-.89l.41-.16-1.7-5.18Z"/><polygon class="cls-4" points="288.36 19.93 284.49 29.22 282.85 33.61 281.32 29.1 278.09 19.93 271.14 19.93 279.52 40.56 275.49 49.94 282.1 49.94 295.02 19.93 288.36 19.93"/><path class="cls-4" d="M88.4,68c0,2.19-1.11,3.63-3.21,3.75A3.69,3.69,0,0,1,81.4,68V59.93h-2v8.15c0,3.29,1.84,5.48,5.51,5.48s5.49-2.17,5.49-5.5V59.93h-2Z"/><polygon class="cls-4" points="113.4 69.68 106.14 59.94 104.4 59.94 104.4 72.94 106.4 72.94 106.4 62.96 113.78 72.94 115.4 72.94 115.4 59.94 113.4 59.94 113.4 69.68"/><rect class="cls-4" x="130.4" y="59.93" width="2" height="13"/><polygon class="cls-4" points="152.08 70.81 147.93 59.94 145.71 59.94 150.87 72.94 153.31 72.94 158.47 59.94 156.25 59.94 152.08 70.81"/><polygon class="cls-4" points="171.4 72.94 180.4 72.94 180.4 70.94 173.4 70.94 173.4 66.94 180.4 66.94 180.4 64.94 173.4 64.94 173.4 60.94 180.4 60.94 180.4 59.94 171.4 59.94 171.4 72.94"/><path class="cls-4" d="M205.05,63.93a3.87,3.87,0,0,0-4.17-4H195.4v13h2v-5h2.5l3.18,5h2.06l-3.33-5.2A3.63,3.63,0,0,0,205.05,63.93Zm-7.65,2v-5H201a2.5,2.5,0,1,1,0,5Z"/><path class="cls-4" d="M222.49,65.05c-1.67-.42-3.11-.8-3.11-2s1-1.89,2.51-1.89a5.22,5.22,0,0,1,3.87,1.57l1.17-1.49a6.57,6.57,0,0,0-4.88-1.87c-2.79,0-4.74,1.61-4.74,3.81,0,2.73,2.49,3.35,4.64,3.91,1.71.44,3.23.84,3.23,2.25,0,1-.76,2.07-2.93,2.07A5.65,5.65,0,0,1,218,69.53l-1.15,1.55a6.86,6.86,0,0,0,5.28,2.13c3.61,0,5.06-1.95,5.06-4C227.23,66.32,224.68,65.63,222.49,65.05Z"/><rect class="cls-4" x="240.4" y="59.93" width="2" height="13"/><polygon class="cls-4" points="255.4 61.94 259.4 61.94 259.4 72.94 261.4 72.94 261.4 61.94 265.4 61.94 265.4 59.94 255.4 59.94 255.4 61.94"/><polygon class="cls-4" points="285.28 59.94 281.4 65.74 277.48 59.94 275.19 59.94 280.4 67.5 280.4 72.94 282.4 72.94 282.4 67.5 287.6 59.94 285.28 59.94"/></g></g></svg>